<svg width="1840" height="827" viewBox="0 0 1840 827" fill="none" xmlns="http://www.w3.org/2000/svg">
<circle cx="7" cy="564" r="5" fill="#F0F14E"/>
<circle cx="53" cy="564" r="5" fill="#F0F14E"/>
<circle cx="76" cy="564" r="5" fill="#F0F14E"/>
<circle cx="30" cy="564" r="5" fill="#F0F14E"/>
<circle cx="7" cy="596" r="5" fill="#F0F14E"/>
<circle cx="53" cy="596" r="5" fill="#F0F14E"/>
<circle cx="76" cy="596" r="5" fill="#F0F14E"/>
<circle cx="30" cy="596" r="5" fill="#F0F14E"/>
<circle cx="7" cy="580" r="5" fill="#F0F14E"/>
<circle cx="53" cy="580" r="5" fill="#F0F14E"/>
<circle cx="76" cy="580" r="5" fill="#F0F14E"/>
<circle cx="30" cy="580" r="5" fill="#F0F14E"/>
<circle cx="7" cy="612" r="5" fill="#F0F14E"/>
<circle cx="53" cy="612" r="5" fill="#F0F14E"/>
<circle cx="76" cy="612" r="5" fill="#F0F14E"/>
<circle cx="30" cy="612" r="5" fill="#F0F14E"/>
<circle cx="7" cy="644" r="5" fill="#F0F14E"/>
<circle cx="53" cy="644" r="5" fill="#F0F14E"/>
<circle cx="76" cy="644" r="5" fill="#F0F14E"/>
<circle cx="30" cy="644" r="5" fill="#F0F14E"/>
<circle cx="7" cy="628" r="5" fill="#F0F14E"/>
<circle cx="53" cy="628" r="5" fill="#F0F14E"/>
<circle cx="76" cy="628" r="5" fill="#F0F14E"/>
<circle cx="30" cy="628" r="5" fill="#F0F14E"/>
<circle cx="7" cy="660" r="5" fill="#F0F14E"/>
<circle cx="53" cy="660" r="5" fill="#F0F14E"/>
<circle cx="76" cy="660" r="5" fill="#F0F14E"/>
<circle cx="30" cy="660" r="5" fill="#F0F14E"/>
<circle cx="7" cy="692" r="5" fill="#F0F14E"/>
<circle cx="53" cy="692" r="5" fill="#F0F14E"/>
<circle cx="76" cy="692" r="5" fill="#F0F14E"/>
<circle cx="30" cy="692" r="5" fill="#F0F14E"/>
<circle cx="7" cy="676" r="5" fill="#F0F14E"/>
<circle cx="53" cy="676" r="5" fill="#F0F14E"/>
<circle cx="76" cy="676" r="5" fill="#F0F14E"/>
<circle cx="30" cy="676" r="5" fill="#F0F14E"/>
<circle cx="7" cy="708" r="5" fill="#F0F14E"/>
<circle cx="53" cy="708" r="5" fill="#F0F14E"/>
<circle cx="76" cy="708" r="5" fill="#F0F14E"/>
<circle cx="30" cy="708" r="5" fill="#F0F14E"/>
<circle cx="7" cy="740" r="5" fill="#F0F14E"/>
<circle cx="53" cy="740" r="5" fill="#F0F14E"/>
<circle cx="76" cy="740" r="5" fill="#F0F14E"/>
<circle cx="30" cy="740" r="5" fill="#F0F14E"/>
<circle cx="7" cy="724" r="5" fill="#F0F14E"/>
<circle cx="53" cy="724" r="5" fill="#F0F14E"/>
<circle cx="76" cy="724" r="5" fill="#F0F14E"/>
<circle cx="30" cy="724" r="5" fill="#F0F14E"/>
<circle cx="7" cy="772" r="5" fill="#F0F14E"/>
<circle cx="53" cy="772" r="5" fill="#F0F14E"/>
<circle cx="76" cy="772" r="5" fill="#F0F14E"/>
<circle cx="30" cy="772" r="5" fill="#F0F14E"/>
<circle cx="7" cy="756" r="5" fill="#F0F14E"/>
<circle cx="53" cy="756" r="5" fill="#F0F14E"/>
<circle cx="76" cy="756" r="5" fill="#F0F14E"/>
<circle cx="30" cy="756" r="5" fill="#F0F14E"/>
<circle cx="7" cy="788" r="5" fill="#F0F14E"/>
<circle cx="53" cy="788" r="5" fill="#F0F14E"/>
<circle cx="76" cy="788" r="5" fill="#F0F14E"/>
<circle cx="30" cy="788" r="5" fill="#F0F14E"/>
<circle cx="7" cy="820" r="5" fill="#F0F14E"/>
<circle cx="53" cy="820" r="5" fill="#F0F14E"/>
<circle cx="76" cy="820" r="5" fill="#F0F14E"/>
<circle cx="30" cy="820" r="5" fill="#F0F14E"/>
<circle cx="7" cy="804" r="5" fill="#F0F14E"/>
<circle cx="53" cy="804" r="5" fill="#F0F14E"/>
<circle cx="76" cy="804" r="5" fill="#F0F14E"/>
<circle cx="30" cy="804" r="5" fill="#F0F14E"/>
<path d="M2 538.5V2H697.5L848.5 86H1828.5L1837 690.5L1645 825L119.5 820" stroke="white" stroke-width="4"/>
</svg>
